{"title":"Big Mommas Like Father Like Son 2011 TS XViD Feel-Free ","uid":6191526,"size":886857402,"categoryP":"video","categoryS":"movies","magnet":"?xt=urn:btih:99ab88f1f86a7a8985cecfc6f35626f8a836df67&amp;dn=Big+Mommas+Like+Father+Like+Son+2011+TS+XViD+Feel-Free+&amp;tr=udp%3A%2F%2Ftracker.openbittorrent.com%3A80&amp;tr=udp%3A%2F%2Fopen.demonii.com%3A1337&amp;tr=udp%3A%2F%2Ftracker.coppersurfer.tk%3A6969&amp;tr=udp%3A%2F%2Fexodus.desync.com%3A6969","seeders":0,"leechers":1,"uploader":"hiest","files":-1,"time":1298304990,"description":"Genre:Comedy\nLanguage:English\nIMDb:http://www.imdb.com/title/tt1464174/\nSource: CiNEDUB/IMAGiNE Thx.\n\n\nFormat : AVI\nFormat/Info : Audio Video Interleave\nFile size : 844 MiB\nDuration : 1h 39mn\nOverall bit rate : 1 183 Kbps\n\n\nVideo\nCodec ID/Hint : XviD\nDuration : 1h 39mn\nBit rate : 1 046 Kbps\nWidth : 656 pixels\nHeight : 368 pixels\nDisplay aspect ratio : 16:9\nFrame rate : 25.000 fps\nColor space : YUV\nChroma subsampling : 4:2:0\nBit depth : 8 bits\nScan type : Progressive\nBits/(Pixel*Frame) : 0.173\nStream size : 746 MiB (88%)\nWriting library : XviD 1.2.1\n\nAudio\nID : 1\nFormat : MPEG Audio\nFormat version : Version 1\nFormat profile : Layer 3\nCodec ID : 55\nCodec ID/Hint : MP3\nDuration : 1h 39mn\nBit rate mode : Constant\nBit rate : 128 Kbps\nChannel(s) : 2 channels\nSampling rate : 44.1 KHz\nStream size : 91.3 MiB (11%)\nAlignment : Split accross interleaves\nInterleave, duration : 40 ms (1.00 video frame)\nInterleave, preload duration : 500 ms\n\n\n\nPlot:\nFBI agent Malcolm Turner and his stepson Trent go undercover at an all-girls performing arts school after Trent witnesses a murder.\n\n\n\n\n\n================================== &lt;a href=&quot;\nhttp://thepiratebay.se/user/hiest&quot; rel=&quot;nofollow&quot; target=&quot;_NEW&quot;&gt;\nhttp://thepiratebay.se/user/hiest&lt;/a&gt;\n==================================\n\n","torrent":{"xt":"urn:btih:99ab88f1f86a7a8985cecfc6f35626f8a836df67","amp;dn":"Big+Mommas+Like+Father+Like+Son+2011+TS+XViD+Feel-Free+","amp;tr":["udp%3A%2F%2Ftracker.openbittorrent.com%3A80","udp%3A%2F%2Fopen.demonii.com%3A1337","udp%3A%2F%2Ftracker.coppersurfer.tk%3A6969","udp%3A%2F%2Fexodus.desync.com%3A6969"],"infoHash":"99ab88f1f86a7a8985cecfc6f35626f8a836df67","infoHashBuffer":{"type":"Buffer","data":[153,171,136,241,248,106,122,137,133,206,207,198,243,86,38,248,168,54,223,103]},"announce":[],"urlList":[]}}